<?xml version="1.0" encoding="utf-8"?>
<!-- Generator: Adobe Illustrator 19.2.1, SVG Export Plug-In . SVG Version: 6.00 Build 0)  -->
<svg version="1.1" id="Layer_1" xmlns="http://www.w3.org/2000/svg" xmlns:xlink="http://www.w3.org/1999/xlink" x="0px" y="0px"
	 viewBox="0 0 154.4 154.4" style="enable-background:new 0 0 154.4 154.4;" xml:space="preserve">
<style type="text/css">
	.st0{fill:#163056;}
	.st1{fill:#EF3953;}
	.st2{fill:#FFFFFF;}
	.st3{fill:#4286C6;}
</style>
<g>
	<path class="st0" d="M77.2,0C34.6,0,0,34.6,0,77.2c0,31.9,19.4,59.3,47,71.1l-8-10.7c-0.3-0.4-0.5-1-0.5-1.5v-28.7
		c0-1.4,1.1-2.5,2.5-2.5h5.4c1.4,0,2.5,1.1,2.5,2.5s-1.1,2.5-2.5,2.5h-2.9v25.4L55.3,151c0.1,0.1,0.1,0.2,0.2,0.3
		c6.9,2,14.2,3.1,21.7,3.1c8.4,0,16.4-1.3,23.9-3.8v-34.9l0.1-8.4c0-0.4-0.1-0.7-0.1-1c-0.1-0.3-0.1-0.5-0.3-0.8
		c-0.2-0.6-0.6-1.1-1-1.6c-0.4-0.5-1-0.8-1.6-1c-1.2-0.5-2.6-0.5-3.8,0c-0.2,0.1-0.5,0.2-0.7,0.4c-0.1,0.1-0.2,0.1-0.3,0.2
		c0.1,0.6,0.2,1.1,0.2,1.7c0,1.4-1.1,2.5-2.5,2.5s-2.5-1.1-2.5-2.5c0-0.4-0.1-0.7-0.1-1.1c-0.1-0.3-0.1-0.5-0.3-0.8
		c-0.2-0.6-0.6-1.1-1-1.6c-0.4-0.4-1-0.8-1.6-1c-1.2-0.5-2.6-0.5-3.8,0c-0.2,0.1-0.5,0.2-0.7,0.4c-0.1,0.1-0.2,0.1-0.2,0.2
		c0.1,0.5,0.1,0.9,0.1,1.4c0,1.4-1.1,2.5-2.5,2.5s-2.5-1.1-2.5-2.5c0-0.4-0.1-0.7-0.1-1.1c-0.1-0.3-0.1-0.5-0.3-0.8
		c-0.2-0.6-0.6-1.1-1-1.6c-0.4-0.4-1-0.8-1.6-1c-1.2-0.5-2.6-0.5-3.8,0c-0.2,0.1-0.5,0.2-0.7,0.4c0,0-0.1,0-0.1,0.1v4.1
		c0,1.4-1.1,2.5-2.5,2.5c-1.3,0-2.4-1.1-2.5-2.4c0,0,0-0.1,0-0.1V67.8c0-2.1-1.7-3.8-3.8-3.8s-3.8,1.7-3.8,3.8V103v0.1v22.2
		c0,1.4-1.1,2.5-2.5,2.5s-2.5-1.1-2.5-2.5v-22.2V67.8c0-4.9,4-8.8,8.8-8.8s8.8,4,8.8,8.8v25.3c2.2-0.6,4.5-0.5,6.6,0.4
		c1.2,0.5,2.2,1.2,3.1,2.1c0.3,0.3,0.6,0.6,0.8,0.9c0.3-0.2,0.6-0.3,1-0.5c2.4-1,5.3-1,7.7,0c1.2,0.5,2.2,1.2,3.1,2.1
		c0.2,0.2,0.4,0.5,0.6,0.7c0.4-0.2,0.7-0.4,1.1-0.6c2.4-1,5.3-1,7.7,0c1.2,0.5,2.2,1.2,3.1,2.1c0.9,0.9,1.6,2,2.1,3.1
		c0.4,1,0.6,2,0.7,3c0,0.2,0,0.3,0,0.5l0,0.3c0,0,0,0,0,0.1c0,0,0,0,0,0l-0.1,8.3v33c28.3-11.5,48.2-39.2,48.2-71.6
		C154.4,34.6,119.8,0,77.2,0z"/>
	<path class="st1" d="M97.9,89.2c-15.8,0-28.7-12.9-28.7-28.7c0-15.8,12.9-28.7,28.7-28.7c15.8,0,28.7,12.9,28.7,28.7
		C126.6,76.3,113.7,89.2,97.9,89.2z M97.9,36.7c-13.1,0-23.7,10.6-23.7,23.7c0,13.1,10.6,23.7,23.7,23.7c13.1,0,23.7-10.6,23.7-23.7
		C121.6,47.3,111,36.7,97.9,36.7z"/>
	<g>
		<g>
			<line class="st2" x1="91.5" y1="54.1" x2="104.3" y2="66.8"/>
			<path class="st1" d="M104.3,69.3c-0.6,0-1.3-0.2-1.8-0.7L89.7,55.8c-1-1-1-2.6,0-3.5c1-1,2.6-1,3.5,0L106,65c1,1,1,2.6,0,3.5
				C105.5,69.1,104.9,69.3,104.3,69.3z"/>
		</g>
		<g>
			<line class="st2" x1="91.5" y1="66.8" x2="104.3" y2="54.1"/>
			<path class="st1" d="M91.5,69.3c-0.6,0-1.3-0.2-1.8-0.7c-1-1-1-2.6,0-3.5l12.7-12.7c1-1,2.6-1,3.5,0c1,1,1,2.6,0,3.5L93.3,68.6
				C92.8,69.1,92.2,69.3,91.5,69.3z"/>
		</g>
	</g>
	<g>
		<circle class="st0" cx="56.5" cy="48.4" r="26.2"/>
		<path class="st0" d="M56.5,80.6c-17.8,0-32.2-14.5-32.2-32.2s14.5-32.2,32.2-32.2s32.2,14.5,32.2,32.2S74.3,80.6,56.5,80.6z
			 M56.5,28.2c-11.2,0-20.2,9.1-20.2,20.2s9.1,20.2,20.2,20.2c11.2,0,20.2-9.1,20.2-20.2S67.7,28.2,56.5,28.2z"/>
	</g>
	<path class="st3" d="M56.5,77.1c-15.8,0-28.7-12.9-28.7-28.7s12.9-28.7,28.7-28.7c15.8,0,28.7,12.9,28.7,28.7S72.3,77.1,56.5,77.1z
		 M56.5,24.7c-13.1,0-23.7,10.6-23.7,23.7s10.6,23.7,23.7,23.7c13.1,0,23.7-10.6,23.7-23.7S69.6,24.7,56.5,24.7z"/>
	<g>
		<g>
			<line class="st2" x1="46.9" y1="48.4" x2="53.3" y2="54.8"/>
			<path class="st3" d="M53.3,57.3c-0.6,0-1.3-0.2-1.8-0.7l-6.4-6.4c-1-1-1-2.6,0-3.5c1-1,2.6-1,3.5,0l6.4,6.4c1,1,1,2.6,0,3.5
				C54.6,57,54,57.3,53.3,57.3z"/>
		</g>
		<g>
			<line class="st2" x1="53.3" y1="54.8" x2="66.1" y2="42"/>
			<path class="st3" d="M53.3,57.3c-0.6,0-1.3-0.2-1.8-0.7c-1-1-1-2.6,0-3.5l12.7-12.7c1-1,2.6-1,3.5,0c1,1,1,2.6,0,3.5L55.1,56.5
				C54.6,57,54,57.3,53.3,57.3z"/>
		</g>
	</g>
	<g>
		<path class="st0" d="M65.9,102.6V67.8c0-3.5-2.8-6.3-6.3-6.3h0c-3.5,0-6.3,2.8-6.3,6.3l0,57.5"/>
		<path class="st2" d="M53.3,127.8c-1.4,0-2.5-1.1-2.5-2.5l0-57.5c0-4.9,4-8.8,8.8-8.8s8.8,4,8.8,8.8v34.7c0,1.4-1.1,2.5-2.5,2.5
			s-2.5-1.1-2.5-2.5V67.8c0-2.1-1.7-3.8-3.8-3.8s-3.8,1.7-3.8,3.8l0,57.5C55.8,126.7,54.7,127.8,53.3,127.8z"/>
	</g>
</g>
</svg>
