<?xml version="1.0" encoding="utf-8"?>
<!-- Generator: Adobe Illustrator 19.2.1, SVG Export Plug-In . SVG Version: 6.00 Build 0)  -->
<svg version="1.1" id="Layer_1" xmlns="http://www.w3.org/2000/svg" xmlns:xlink="http://www.w3.org/1999/xlink" x="0px" y="0px"
	 viewBox="0 0 154.4 154.4" style="enable-background:new 0 0 154.4 154.4;" xml:space="preserve">
<style type="text/css">
	.st0{fill:#163056;}
	.st1{fill:#FFFFFF;}
	.st2{fill:#4286C6;}
	.st3{fill:#EF3953;}
</style>
<g>
	<path class="st0" d="M131.8,91.6H153c0.9-4.7,1.4-9.5,1.4-14.4C154.4,34.6,119.8,0,77.2,0S0,34.6,0,77.2c0,4.9,0.5,9.7,1.4,14.4h22
		c1.4,0,2.5,1.1,2.5,2.5s-1.1,2.5-2.5,2.5H2.5c8.6,33.3,38.8,57.8,74.7,57.8s66.1-24.6,74.7-57.8h-20.2c-1.4,0-2.5-1.1-2.5-2.5
		S130.4,91.6,131.8,91.6z"/>
	<g>
		<path class="st1" d="M116.7,126.4H38.4c-1.4,0-2.5-1.1-2.5-2.5V71.7c0-1.4,1.1-2.5,2.5-2.5h78.3c1.4,0,2.5,1.1,2.5,2.5v52.2
			C119.2,125.3,118.1,126.4,116.7,126.4z M40.9,121.4h73.3V74.2H40.9V121.4z"/>
		<g>
			<g>
				<g>
					<path class="st2" d="M99.6,83.3c-1.1-1.1-2.3-1.8-3.6-2.4c-1.3-0.5-2.7-0.8-4.1-0.8c-1.4,0-2.8,0.3-4.1,0.8
						c-1.3,0.5-2.5,1.3-3.6,2.4l0,0l0,0l0,0l0,0c-1.1-1.1-2.3-1.8-3.6-2.4c-1.3-0.5-2.7-0.8-4.1-0.8c-1.4,0-2.8,0.3-4.1,0.8
						c-1.3,0.5-2.5,1.3-3.6,2.4c-1.1,1.1-1.8,2.3-2.4,3.6c-0.5,1.3-0.8,2.7-0.8,4.1c0,1.4,0.3,2.8,0.8,4.1c0.5,1.3,1.3,2.5,2.4,3.6
						l3.8,3.8l3.8,3.8l3.8,3.8l3.8,3.8l0,0l0,0l0,0l0,0l3.8-3.8l3.8-3.8l3.8-3.8l3.8-3.8l0,0l0,0l0,0l0,0c1.1-1.1,1.8-2.3,2.4-3.6
						c0.5-1.3,0.8-2.7,0.8-4.1c0-1.4-0.3-2.8-0.8-4.1C101.5,85.5,100.7,84.3,99.6,83.3z"/>
					<path class="st1" d="M84.4,115.9L68.1,99.6c-1.2-1.2-2.1-2.5-2.7-4.1c-0.6-1.5-0.9-3-0.9-4.6c0-1.6,0.3-3.1,0.9-4.6
						c0.6-1.5,1.5-2.9,2.7-4.1c1.2-1.2,2.5-2.1,4.1-2.7c2.9-1.2,6.3-1.2,9.2,0c1.1,0.4,2.1,1,3,1.7c0.9-0.7,1.9-1.3,3-1.8
						c2.9-1.2,6.3-1.2,9.2,0c1.5,0.6,2.9,1.5,4.1,2.7c1.2,1.2,2.1,2.5,2.7,4.1c0.6,1.5,0.9,3,0.9,4.6s-0.3,3.1-0.9,4.6
						c-0.6,1.5-1.5,2.9-2.7,4l-0.1,0.1L84.4,115.9z M76.8,81.6c-1.2,0-2.4,0.2-3.5,0.7c-1.1,0.5-2.2,1.2-3.1,2s-1.6,1.9-2,3.1
						c-0.5,1.1-0.7,2.3-0.7,3.5c0,1.2,0.2,2.4,0.7,3.5c0.5,1.1,1.2,2.2,2,3.1l14.2,14.2l14.3-14.3c0.8-0.8,1.5-1.9,2-3
						c0.5-1.1,0.7-2.3,0.7-3.5s-0.2-2.4-0.7-3.5c-0.5-1.2-1.2-2.2-2-3.1s-1.9-1.6-3.1-2c-2.2-0.9-4.8-0.9-7,0c-1.1,0.5-2.2,1.1-3,2
						l-1.1,1.1l-1.1-1.1c-0.9-0.9-1.9-1.6-3.1-2C79.1,81.9,78,81.6,76.8,81.6z"/>
				</g>
			</g>
			<g>
				<g>
					<path class="st3" d="M84.3,83.3c-1.1-1.1-2.3-1.8-3.6-2.4c-1.3-0.5-2.7-0.8-4.1-0.8c-1.4,0-2.8,0.3-4.1,0.8
						c-1.3,0.5-2.5,1.3-3.6,2.4l0,0l0,0l0,0l0,0c-1.1-1.1-2.3-1.8-3.6-2.4c-1.3-0.5-2.7-0.8-4.1-0.8c-1.4,0-2.8,0.3-4.1,0.8
						c-1.3,0.5-2.5,1.3-3.6,2.4c-1.1,1.1-1.8,2.3-2.4,3.6c-0.5,1.3-0.8,2.7-0.8,4.1c0,1.4,0.3,2.8,0.8,4.1c0.5,1.3,1.3,2.5,2.4,3.6
						l3.8,3.8l3.8,3.8l3.8,3.8l3.8,3.8l0,0l0,0l0,0l0,0l3.8-3.8l3.8-3.8l3.8-3.8l3.8-3.8l0,0l0,0l0,0l0,0c1.1-1.1,1.8-2.3,2.4-3.6
						c0.5-1.3,0.8-2.7,0.8-4.1c0-1.4-0.3-2.8-0.8-4.1C86.2,85.5,85.4,84.3,84.3,83.3z"/>
					<path class="st1" d="M69.1,115.9L52.8,99.6c-1.2-1.2-2.1-2.5-2.7-4.1c-0.6-1.5-0.9-3-0.9-4.6c0-1.6,0.3-3.1,0.9-4.6
						c0.6-1.5,1.5-2.9,2.7-4.1c1.2-1.2,2.5-2.1,4.1-2.7c2.9-1.2,6.3-1.2,9.2,0c1.1,0.4,2.1,1,3,1.7c0.9-0.7,1.9-1.3,3-1.8
						c2.9-1.2,6.3-1.2,9.2,0c1.5,0.6,2.9,1.5,4.1,2.7h0c1.2,1.2,2.1,2.5,2.7,4.1c0.6,1.5,0.9,3,0.9,4.6s-0.3,3.1-0.9,4.6
						c-0.6,1.5-1.5,2.9-2.7,4.1l-0.1,0.1l-15.1,15.1L69.1,115.9z M61.4,81.6c-1.2,0-2.4,0.2-3.5,0.7c-1.1,0.5-2.2,1.2-3.1,2
						c-0.9,0.9-1.6,1.9-2,3.1c-0.5,1.1-0.7,2.3-0.7,3.5c0,1.2,0.2,2.4,0.7,3.5c0.5,1.1,1.2,2.2,2,3.1l14.2,14.2l14.3-14.3
						c0.8-0.8,1.5-1.9,2-3c0.5-1.1,0.7-2.3,0.7-3.5s-0.2-2.4-0.7-3.5c-0.5-1.1-1.2-2.2-2-3.1c-0.9-0.9-1.9-1.6-3.1-2
						c-2.2-0.9-4.8-0.9-7,0c-1.1,0.5-2.2,1.1-3.1,2l-1,1.2L68,84.3c-0.9-0.9-1.9-1.6-3.1-2C63.8,81.9,62.6,81.6,61.4,81.6z"/>
				</g>
			</g>
			<g>
				<path class="st0" d="M76.7,80.1c-5.9,0-10.7,4.8-10.7,10.7c0,3,1.2,5.6,3.1,7.6l7.6,7.6l7.6-7.6c1.9-1.9,3.1-4.6,3.1-7.6
					C87.5,84.9,82.7,80.1,76.7,80.1z"/>
				<path class="st1" d="M76.7,108.1l-8.7-8.7c-2.3-2.3-3.6-5.4-3.6-8.7c0-6.7,5.5-12.2,12.2-12.2S89,84.1,89,90.8
					c0,3.3-1.3,6.3-3.6,8.7L76.7,108.1z M76.7,81.6c-5.1,0-9.2,4.1-9.2,9.2c0,2.5,1,4.8,2.7,6.5l6.5,6.5l6.5-6.5
					c1.7-1.7,2.7-4.1,2.7-6.5C86,85.7,81.8,81.6,76.7,81.6z"/>
			</g>
		</g>
		<g>
			<polygon class="st0" points="116.7,71.7 38.4,71.7 50.8,61.7 104.2,61.7 			"/>
			<path class="st1" d="M116.7,74.2H38.4c-1.1,0-2-0.7-2.4-1.7c-0.4-1,0-2.1,0.8-2.8l12.5-9.9c0.4-0.4,1-0.5,1.6-0.5h53.4
				c0.6,0,1.1,0.2,1.6,0.5l12.5,9.9c0.8,0.7,1.2,1.8,0.8,2.8C118.7,73.5,117.8,74.2,116.7,74.2z M45.5,69.2h64l-6.2-4.9H51.7
				L45.5,69.2z"/>
		</g>
		<g>
			<polyline class="st1" points="82.6,14.2 77.5,14.2 58,14.2 58,40.4 58,66.5 77.5,66.5 97.1,66.5 97.1,40.4 97.1,28.7 			"/>
			<path class="st0" d="M97.1,69H58c-1.4,0-2.5-1.1-2.5-2.5V14.2c0-1.4,1.1-2.5,2.5-2.5h24.6c1.4,0,2.5,1.1,2.5,2.5
				s-1.1,2.5-2.5,2.5H60.5V64h34.2V28.7c0-1.4,1.1-2.5,2.5-2.5s2.5,1.1,2.5,2.5v37.8C99.6,67.9,98.5,69,97.1,69z"/>
		</g>
		<g>
			<polyline class="st1" points="71.4,44 73.4,46 75.5,48.1 75.5,48.1 75.5,48.1 77.5,46 79.6,44 81.6,41.9 83.7,39.9 			"/>
			<path class="st0" d="M75.5,49.6L75.5,49.6c-0.4,0-0.8-0.1-1.1-0.4L70.3,45c-0.6-0.6-0.6-1.5,0-2.1s1.5-0.6,2.1,0l3,3l7.1-7.1
				c0.6-0.6,1.5-0.6,2.1,0c0.6,0.6,0.6,1.5,0,2.1l-8.2,8.2C76.3,49.4,75.9,49.6,75.5,49.6z"/>
		</g>
		<g>
			<polygon class="st1" points="97.1,28.7 82.6,28.7 82.6,14.2 			"/>
			<path class="st0" d="M97.1,30.2H82.6c-0.8,0-1.5-0.7-1.5-1.5V14.2c0-0.6,0.4-1.2,0.9-1.4c0.6-0.2,1.2-0.1,1.6,0.3l14.5,14.5
				c0.4,0.4,0.6,1.1,0.3,1.6S97.7,30.2,97.1,30.2z M84.1,27.2h9.4l-9.4-9.4V27.2z"/>
		</g>
		<g>
			<line class="st1" x1="97.1" y1="28.7" x2="82.6" y2="14.2"/>
			<path class="st0" d="M97.1,31.2c-0.6,0-1.3-0.2-1.8-0.7L80.8,16c-1-1-1-2.6,0-3.5c1-1,2.6-1,3.5,0L98.9,27c1,1,1,2.6,0,3.5
				C98.4,31,97.8,31.2,97.1,31.2z"/>
		</g>
		<path class="st0" d="M82.6,57.2H71.4c-0.8,0-1.5-0.7-1.5-1.5s0.7-1.5,1.5-1.5h11.2c0.8,0,1.5,0.7,1.5,1.5S83.4,57.2,82.6,57.2z"/>
	</g>
</g>
</svg>
