<svg id="Layer_1" data-name="Layer 1" xmlns="http://www.w3.org/2000/svg" viewBox="0 0 394.39 78.57"><defs><style>.cls-1{fill:#fff;}</style></defs><title>okcandidate-logo-white</title><path class="cls-1" d="M44,65.85a1.92,1.92,0,0,1-2.7,0l-3-2.93L22.56,47.21a6.06,6.06,0,1,1,8.58-8.57L42.56,50.06,80,12.57A27.07,27.07,0,0,0,77.79,10a26.75,26.75,0,0,0-35-2.48A26.76,26.76,0,0,0,7.84,10.06a26.76,26.76,0,0,0,0,37.87l32,31.81a4,4,0,0,0,2.94,1h0a4,4,0,0,0,2.85-1s0.07,0,.09,0L77.71,47.9l0.07,0h0a26.67,26.67,0,0,0,7.84-18.92,26.88,26.88,0,0,0-.37-4.42Z" transform="translate(0 -2.16)"/><path class="cls-1" d="M120.59,23.16c11,0,18.75,8.12,18.75,18.49,0,10.68-7.76,19-18.75,19s-18.75-8.33-18.75-19C101.84,31.28,109.6,23.16,120.59,23.16Zm0,31.47c6.95,0,12-5.62,12-13,0-7.05-5-12.47-12-12.47s-12,5.41-12,12.47C108.63,49,113.64,54.62,120.59,54.62Z" transform="translate(0 -2.16)"/><path class="cls-1" d="M143.12,25.91a1.94,1.94,0,0,1,2.15-2.15h2.2a1.92,1.92,0,0,1,2.15,2.15V43.18h3.22l5.41-7.76A2.67,2.67,0,0,1,160.79,34h2.45c1.74,0,2.3,1.17,1.33,2.55l-6.49,9.09v0.1l7.66,11.75c0.87,1.48.31,2.55-1.43,2.55h-2.76a2.59,2.59,0,0,1-2.5-1.48L153,48.65h-3.37v9.25A1.9,1.9,0,0,1,147.46,60h-2.2a1.92,1.92,0,0,1-2.15-2.15v-32Z" transform="translate(0 -2.16)"/><path class="cls-1" d="M186.34,23.16a20.23,20.23,0,0,1,11.85,3.63,2,2,0,0,1,.41,3l-0.92,1.48c-0.72,1.18-1.69,1.28-2.91.51a15.1,15.1,0,0,0-8.17-2.55c-7.92,0-12.16,5.77-12.16,12.47s4.39,13,12.21,13a15.2,15.2,0,0,0,8.89-3.17c1.12-.82,2.15-0.82,3,0.36l1,1.38a2,2,0,0,1-.31,3,20.34,20.34,0,0,1-12.82,4.49c-11.39,0-18.75-8.22-18.75-18.9C167.64,31.23,175.36,23.16,186.34,23.16Z" transform="translate(0 -2.16)"/><path class="cls-1" d="M216.54,43.95h1.07V43.33c0-3.42-2.2-4.6-4.85-4.6a11.75,11.75,0,0,0-5.41,1.48c-1.28.56-2.25,0.36-2.86-.87l-0.51-1a1.91,1.91,0,0,1,.82-2.86,18.5,18.5,0,0,1,8.53-2.15c6.74,0,10.78,3.78,10.78,10.37V57.89A1.9,1.9,0,0,1,222,60h-1.74a1.88,1.88,0,0,1-2.09-2.15v-1a5.09,5.09,0,0,1,.1-1.12h-0.1a9.49,9.49,0,0,1-8.17,4.9c-4.75,0-8.63-3.06-8.63-7.82C201.31,45.22,210.71,43.95,216.54,43.95ZM211.68,55.7c3.63,0,6-3.68,6-6.85v-1h-1.07c-3.27,0-8.84.51-8.84,4.39C207.75,54,209.08,55.7,211.68,55.7Z" transform="translate(0 -2.16)"/><path class="cls-1" d="M228.85,36.13A1.9,1.9,0,0,1,230.94,34h2A1.9,1.9,0,0,1,235,36.13v1.58a8.29,8.29,0,0,1-.1,1.18H235a10.16,10.16,0,0,1,9.25-5.52c5.77,0,9.09,3,9.09,9.91V57.89A1.9,1.9,0,0,1,251.23,60H249a1.92,1.92,0,0,1-2.15-2.15V44.61c0-3.17-.82-5.31-4.09-5.31-4.6,0-7.51,3.83-7.51,8.53V57.89A1.88,1.88,0,0,1,233.19,60h-2.25a1.88,1.88,0,0,1-2.09-2.15V36.13Z" transform="translate(0 -2.16)"/><path class="cls-1" d="M268.45,33.37c5.72,0,7.61,3.73,7.61,3.73h0.1a10.82,10.82,0,0,1-.1-1.48V25.91a1.9,1.9,0,0,1,2.09-2.15h2.25a1.9,1.9,0,0,1,2.09,2.15v32A1.88,1.88,0,0,1,280.4,60h-1.89a1.8,1.8,0,0,1-2.09-1.94v-1a4.2,4.2,0,0,1,.1-0.92h-0.1a9,9,0,0,1-8.17,4.49c-7,0-11.6-5.57-11.6-13.64C256.64,38.74,261.55,33.37,268.45,33.37Zm1.23,21.81c3.37,0,6.54-2.45,6.54-8.22,0-4-2.1-8-6.49-8-3.52,0-6.54,2.91-6.54,8.07C263.18,52,265.84,55.19,269.67,55.19Z" transform="translate(0 -2.16)"/><path class="cls-1" d="M287.71,27.45V25.91a1.9,1.9,0,0,1,2.09-2.15h2.25a1.94,1.94,0,0,1,2.15,2.15v1.53a1.9,1.9,0,0,1-2.15,2.09H289.8A1.86,1.86,0,0,1,287.71,27.45Zm0,8.68A1.9,1.9,0,0,1,289.8,34h2.25a1.9,1.9,0,0,1,2.09,2.15V57.89A1.88,1.88,0,0,1,292.05,60H289.8a1.88,1.88,0,0,1-2.09-2.15V36.13Z" transform="translate(0 -2.16)"/><path class="cls-1" d="M309.58,33.37c5.72,0,7.61,3.73,7.61,3.73h0.1a10.82,10.82,0,0,1-.1-1.48V25.91a1.9,1.9,0,0,1,2.09-2.15h2.25a1.9,1.9,0,0,1,2.09,2.15v32A1.88,1.88,0,0,1,321.53,60h-1.89a1.8,1.8,0,0,1-2.09-1.94v-1a4.2,4.2,0,0,1,.1-0.92h-0.1a9,9,0,0,1-8.17,4.49c-7,0-11.6-5.57-11.6-13.64C297.77,38.74,302.68,33.37,309.58,33.37Zm1.23,21.81c3.37,0,6.54-2.45,6.54-8.22,0-4-2.09-8-6.49-8-3.52,0-6.54,2.91-6.54,8.07C304.31,52,307,55.19,310.8,55.19Z" transform="translate(0 -2.16)"/><path class="cls-1" d="M342.07,43.95h1.07V43.33c0-3.42-2.2-4.6-4.85-4.6a11.75,11.75,0,0,0-5.41,1.48c-1.28.56-2.25,0.36-2.86-.87l-0.51-1a1.91,1.91,0,0,1,.82-2.86,18.5,18.5,0,0,1,8.53-2.15c6.74,0,10.78,3.78,10.78,10.37V57.89A1.9,1.9,0,0,1,347.49,60h-1.74a1.88,1.88,0,0,1-2.1-2.15v-1a5.09,5.09,0,0,1,.1-1.12h-0.1a9.49,9.49,0,0,1-8.17,4.9c-4.75,0-8.63-3.06-8.63-7.82C326.85,45.22,336.25,43.95,342.07,43.95ZM337.22,55.7c3.63,0,6-3.68,6-6.85v-1h-1.07c-3.27,0-8.84.51-8.84,4.39C333.28,54,334.61,55.7,337.22,55.7Z" transform="translate(0 -2.16)"/><path class="cls-1" d="M355.51,39.5h-1.38A1.88,1.88,0,0,1,352,37.36V36.49a1.92,1.92,0,0,1,2.15-2.15h1.48V29a1.94,1.94,0,0,1,2.15-2.15h2A1.94,1.94,0,0,1,362,29v5.31h3.78a1.94,1.94,0,0,1,2.15,2.15v0.87a1.9,1.9,0,0,1-2.09,2.15H362V49.62c0,3.88,2.4,4.65,4.19,4.85,1.58,0.15,2.15.66,2.15,2.1v1.58c0,1.53-.87,2.15-2.66,2.15-4.65,0-10.17-2.5-10.17-9.55V39.5Z" transform="translate(0 -2.16)"/><path class="cls-1" d="M382.84,33.37c7.41,0,11.55,5.26,11.55,12.41a2.26,2.26,0,0,1-2.25,2.2H376.25a7.49,7.49,0,0,0,7.82,7.15,10.76,10.76,0,0,0,5.62-1.69c1.28-.61,2.2-0.46,2.86.72l0.61,1a1.94,1.94,0,0,1-.72,2.86,16.46,16.46,0,0,1-8.84,2.61c-8.63,0-14-6.23-14-13.64C369.61,39,375,33.37,382.84,33.37ZM388,44c-0.1-3.63-2.3-5.77-5.26-5.77-3.32,0-5.67,2.3-6.28,5.77H388Z" transform="translate(0 -2.16)"/></svg>