<?xml version="1.0" encoding="utf-8"?>
<!-- Generator: Adobe Illustrator 19.2.1, SVG Export Plug-In . SVG Version: 6.00 Build 0)  -->
<svg version="1.1" id="Layer_1" xmlns="http://www.w3.org/2000/svg" xmlns:xlink="http://www.w3.org/1999/xlink" x="0px" y="0px"
	 viewBox="0 0 394.4 83.8" style="enable-background:new 0 0 394.4 83.8;" xml:space="preserve">
<style type="text/css">
	.st0{fill:#FF304F;}
	.st1{fill:#118DF0;}
	.st2{fill:#0E2F56;}
</style>
<path class="st0" d="M44,65.9c-0.4,0.4-0.9,0.6-1.4,0.6c-0.5,0-1-0.2-1.3-0.6l-3-2.9L22.6,47.2c-2.4-2.4-2.4-6.2,0-8.6
	c2.4-2.4,6.2-2.4,8.6,0l11.4,11.4L80,12.6c-0.7-0.9-1.4-1.8-2.3-2.6c-2.6-2.6-5.5-4.5-8.9-5.9c-3.2-1.3-6.6-2-10.1-2
	c-3.5,0-6.9,0.7-10.1,2c-2.1,0.9-4.2,2-6,3.4C41,6.2,39,5,36.8,4.2c-3.2-1.3-6.6-2-10.1-2c-3.5,0-6.9,0.7-10.1,2
	c-3.3,1.3-6.3,3.3-8.9,5.9c-2.6,2.6-4.5,5.5-5.9,8.9C0.7,22.1,0,25.5,0,29c0,3.5,0.7,6.9,2,10.1c1.3,3.3,3.3,6.3,5.9,8.9l32,31.8
	c0.8,0.8,1.8,1,2.9,1c0,0,0,0,0,0c1.1,0,2.1-0.2,2.9-1c0,0,0.1,0,0.1,0l31.9-31.9c0,0,0,0,0.1,0c0,0,0,0,0,0
	c2.6-2.6,4.5-5.5,5.9-8.9c1.3-3.2,2-6.6,2-10.1c0-1.5-0.1-3-0.4-4.4L44,65.9z"/>
<g>
	<path class="st1" d="M120.6,23.2c11,0,18.7,8.1,18.7,18.5c0,10.7-7.8,19-18.7,19c-11,0-18.7-8.3-18.7-19
		C101.8,31.3,109.6,23.2,120.6,23.2z M120.6,54.6c6.9,0,12-5.6,12-13c0-7.1-5-12.5-12-12.5c-6.9,0-12,5.4-12,12.5
		C108.6,49,113.6,54.6,120.6,54.6z"/>
	<path class="st1" d="M143.1,25.9c0-1.4,0.8-2.1,2.1-2.1h2.2c1.4,0,2.1,0.8,2.1,2.1v17.3h3.2l5.4-7.8c0.6-1,1.4-1.4,2.6-1.4h2.5
		c1.7,0,2.3,1.2,1.3,2.6l-6.5,9.1v0.1l7.7,11.8c0.9,1.5,0.3,2.6-1.4,2.6h-2.8c-1.2,0-1.9-0.5-2.5-1.5l-6.1-9.9h-3.4v9.2
		c0,1.4-0.7,2.1-2.1,2.1h-2.2c-1.4,0-2.1-0.7-2.1-2.1V25.9z"/>
	<path class="st2" d="M186.3,23.2c5.9,0,9.9,2.2,11.9,3.6c1.1,0.8,1.1,1.8,0.4,3l-0.9,1.5c-0.7,1.2-1.7,1.3-2.9,0.5
		c-1.6-1-4.4-2.6-8.2-2.6c-7.9,0-12.2,5.8-12.2,12.5c0,6.8,4.4,13,12.2,13c4.1,0,7.2-1.9,8.9-3.2c1.1-0.8,2.1-0.8,3,0.4l1,1.4
		c0.8,1,0.7,2.1-0.3,3c-2,1.6-6.4,4.5-12.8,4.5c-11.4,0-18.7-8.2-18.7-18.9C167.6,31.2,175.4,23.2,186.3,23.2z"/>
	<path class="st2" d="M216.5,43.9h1.1v-0.6c0-3.4-2.2-4.6-4.9-4.6c-2.2,0-4.2,0.8-5.4,1.5c-1.3,0.6-2.2,0.4-2.9-0.9l-0.5-1
		c-0.6-1.2-0.4-2.2,0.8-2.9c1.7-0.9,4.6-2.1,8.5-2.1c6.7,0,10.8,3.8,10.8,10.4v14.2c0,1.4-0.7,2.1-2.1,2.1h-1.7
		c-1.4,0-2.1-0.7-2.1-2.1v-1c0-0.7,0.1-1.1,0.1-1.1h-0.1c0,0-2.5,4.9-8.2,4.9c-4.8,0-8.6-3.1-8.6-7.8
		C201.3,45.2,210.7,43.9,216.5,43.9z M211.7,55.7c3.6,0,6-3.7,6-6.8v-1h-1.1c-3.3,0-8.8,0.5-8.8,4.4C207.7,54,209.1,55.7,211.7,55.7
		z"/>
	<path class="st2" d="M228.9,36.1c0-1.4,0.7-2.1,2.1-2.1h2c1.4,0,2.1,0.8,2.1,2.1v1.6c0,0.6-0.1,1.2-0.1,1.2h0.1
		c1.1-2.2,4-5.5,9.2-5.5c5.8,0,9.1,3,9.1,9.9v14.6c0,1.4-0.7,2.1-2.1,2.1H249c-1.4,0-2.1-0.7-2.1-2.1V44.6c0-3.2-0.8-5.3-4.1-5.3
		c-4.6,0-7.5,3.8-7.5,8.5v10.1c0,1.4-0.7,2.1-2.1,2.1h-2.2c-1.4,0-2.1-0.7-2.1-2.1V36.1z"/>
	<path class="st2" d="M268.4,33.4c5.7,0,7.6,3.7,7.6,3.7h0.1c0,0-0.1-0.7-0.1-1.5v-9.7c0-1.4,0.7-2.1,2.1-2.1h2.2
		c1.4,0,2.1,0.8,2.1,2.1v32c0,1.4-0.7,2.1-2.1,2.1h-1.9c-1.4,0-2.1-0.7-2.1-1.9v-1c0-0.5,0.1-0.9,0.1-0.9h-0.1c0,0-2.2,4.5-8.2,4.5
		c-7,0-11.6-5.6-11.6-13.6C256.6,38.7,261.5,33.4,268.4,33.4z M269.7,55.2c3.4,0,6.5-2.5,6.5-8.2c0-4-2.1-8-6.5-8
		c-3.5,0-6.5,2.9-6.5,8.1C263.2,52,265.8,55.2,269.7,55.2z"/>
	<path class="st2" d="M287.7,27.4v-1.5c0-1.4,0.7-2.1,2.1-2.1h2.2c1.4,0,2.1,0.8,2.1,2.1v1.5c0,1.4-0.8,2.1-2.1,2.1h-2.2
		C288.4,29.5,287.7,28.8,287.7,27.4z M287.7,36.1c0-1.4,0.7-2.1,2.1-2.1h2.2c1.4,0,2.1,0.8,2.1,2.1v21.8c0,1.4-0.7,2.1-2.1,2.1h-2.2
		c-1.4,0-2.1-0.7-2.1-2.1V36.1z"/>
	<path class="st2" d="M309.6,33.4c5.7,0,7.6,3.7,7.6,3.7h0.1c0,0-0.1-0.7-0.1-1.5v-9.7c0-1.4,0.7-2.1,2.1-2.1h2.2
		c1.4,0,2.1,0.8,2.1,2.1v32c0,1.4-0.7,2.1-2.1,2.1h-1.9c-1.4,0-2.1-0.7-2.1-1.9v-1c0-0.5,0.1-0.9,0.1-0.9h-0.1c0,0-2.2,4.5-8.2,4.5
		c-7,0-11.6-5.6-11.6-13.6C297.8,38.7,302.7,33.4,309.6,33.4z M310.8,55.2c3.4,0,6.5-2.5,6.5-8.2c0-4-2.1-8-6.5-8
		c-3.5,0-6.5,2.9-6.5,8.1C304.3,52,307,55.2,310.8,55.2z"/>
	<path class="st2" d="M342.1,43.9h1.1v-0.6c0-3.4-2.2-4.6-4.9-4.6c-2.2,0-4.2,0.8-5.4,1.5c-1.3,0.6-2.2,0.4-2.9-0.9l-0.5-1
		c-0.6-1.2-0.4-2.2,0.8-2.9c1.7-0.9,4.6-2.1,8.5-2.1c6.7,0,10.8,3.8,10.8,10.4v14.2c0,1.4-0.7,2.1-2.1,2.1h-1.7
		c-1.4,0-2.1-0.7-2.1-2.1v-1c0-0.7,0.1-1.1,0.1-1.1h-0.1c0,0-2.5,4.9-8.2,4.9c-4.8,0-8.6-3.1-8.6-7.8
		C326.8,45.2,336.2,43.9,342.1,43.9z M337.2,55.7c3.6,0,6-3.7,6-6.8v-1h-1.1c-3.3,0-8.8,0.5-8.8,4.4C333.3,54,334.6,55.7,337.2,55.7
		z"/>
	<path class="st2" d="M355.5,39.5h-1.4c-1.4,0-2.1-0.7-2.1-2.1v-0.9c0-1.4,0.7-2.1,2.1-2.1h1.5V29c0-1.4,0.8-2.1,2.1-2.1h2
		c1.4,0,2.1,0.8,2.1,2.1v5.3h3.8c1.4,0,2.1,0.8,2.1,2.1v0.9c0,1.4-0.8,2.1-2.1,2.1H362v10.1c0,3.9,2.4,4.6,4.2,4.9
		c1.6,0.2,2.1,0.7,2.1,2.1v1.6c0,1.5-0.9,2.1-2.7,2.1c-4.6,0-10.2-2.5-10.2-9.6V39.5z"/>
	<path class="st2" d="M382.8,33.4c7.4,0,11.5,5.3,11.5,12.4c0,1.1-1,2.2-2.2,2.2h-15.9c0.4,4.7,3.9,7.2,7.8,7.2
		c2.4,0,4.4-0.9,5.6-1.7c1.3-0.6,2.2-0.5,2.9,0.7l0.6,1c0.6,1.2,0.4,2.2-0.7,2.9c-1.7,1.1-4.8,2.6-8.8,2.6c-8.6,0-14-6.2-14-13.6
		C369.6,39,375,33.4,382.8,33.4z M388,44c-0.1-3.6-2.3-5.8-5.3-5.8c-3.3,0-5.7,2.3-6.3,5.8H388z"/>
</g>
</svg>
