<?xml version="1.0" encoding="utf-8"?>
<!-- Generator: Adobe Illustrator 19.2.1, SVG Export Plug-In . SVG Version: 6.00 Build 0)  -->
<svg version="1.1" id="Layer_1" xmlns="http://www.w3.org/2000/svg" xmlns:xlink="http://www.w3.org/1999/xlink" x="0px" y="0px"
	 viewBox="0 0 154.4 154.4" style="enable-background:new 0 0 154.4 154.4;" xml:space="preserve">
<style type="text/css">
	.st0{fill:#163056;}
	.st1{fill:#FFFFFF;}
	.st2{fill:#4286C6;}
	.st3{fill:#EF3953;}
</style>
<g>
	<circle class="st0" cx="77.6" cy="77.4" r="77.2"/>
	<g>
		<path class="st1" d="M22.3,117.6V89.1c0-6.6,5.4-12,12-12h32.1c6.6,0,12,5.4,12,12l-0.2,50.6"/>
		<path class="st0" d="M78.1,144.7C78.1,144.7,78.1,144.7,78.1,144.7c-2.8,0-5-2.3-5-5l0.2-50.6c0-3.8-3.1-7-7-7H34.3
			c-3.9,0-7,3.1-7,7v28.6c0,2.8-2.2,5-5,5s-5-2.2-5-5V89.1c0-9.4,7.6-17,17-17h32.1c9.4,0,17,7.6,17,17l-0.2,50.7
			C83.1,142.5,80.9,144.7,78.1,144.7z"/>
	</g>
	<g>
		<path class="st2" d="M50.1,85.8L50.1,85.8c-4.8,0-8.8-3.9-8.8-8.8v0c0-4.8,3.9-8.8,8.8-8.8h0c4.8,0,8.8,3.9,8.8,8.8v0
			C58.8,81.9,54.9,85.8,50.1,85.8z"/>
		<path class="st0" d="M50.1,88.3c-6.2,0-11.3-5.1-11.3-11.3c0-6.2,5.1-11.3,11.3-11.3s11.3,5.1,11.3,11.3
			C61.3,83.3,56.3,88.3,50.1,88.3z M50.1,70.8c-3.5,0-6.3,2.8-6.3,6.3s2.8,6.3,6.3,6.3c3.5,0,6.3-2.8,6.3-6.3S53.5,70.8,50.1,70.8z"
			/>
	</g>
	<g>
		<path class="st1" d="M78.1,139.7l0.2-50.6c0-6.6,5.4-12,12-12h32.1c6.6,0,12,5.4,12,12l-0.2,28.4"/>
		<path class="st0" d="M78.1,144.7C78.1,144.7,78.1,144.7,78.1,144.7c-2.8,0-5-2.3-5-5l0.2-50.6c0-9.4,7.6-17,17-17h32.1
			c9.4,0,17,7.6,17,17l-0.2,28.4c0,2.7-2.3,5-5,5c0,0,0,0,0,0c-2.8,0-5-2.3-5-5l0.2-28.4c0-3.8-3.1-7-7-7H90.3c-3.9,0-7,3.1-7,7
			l-0.2,50.7C83.1,142.5,80.9,144.7,78.1,144.7z"/>
	</g>
	<g>
		<path class="st2" d="M106.1,85.8L106.1,85.8c-4.8,0-8.8-3.9-8.8-8.8v0c0-4.8,3.9-8.8,8.8-8.8h0c4.8,0,8.8,3.9,8.8,8.8v0
			C114.9,81.9,111,85.8,106.1,85.8z"/>
		<path class="st0" d="M106.1,88.3c-6.2,0-11.3-5.1-11.3-11.3c0-6.2,5.1-11.3,11.3-11.3c6.2,0,11.3,5.1,11.3,11.3
			C117.4,83.3,112.4,88.3,106.1,88.3z M106.1,70.8c-3.5,0-6.3,2.8-6.3,6.3s2.8,6.3,6.3,6.3c3.5,0,6.3-2.8,6.3-6.3
			S109.6,70.8,106.1,70.8z"/>
	</g>
	<g>
		<polygon class="st1" points="78.3,87 93,61.6 63.7,61.6 		"/>
		<path class="st0" d="M78.3,88.5c-0.5,0-1-0.3-1.3-0.8L62.4,62.3c-0.3-0.5-0.3-1,0-1.5c0.3-0.5,0.8-0.8,1.3-0.8H93
			c0.5,0,1,0.3,1.3,0.8c0.3,0.5,0.3,1,0,1.5L79.6,87.7C79.4,88.2,78.9,88.5,78.3,88.5z M66.3,63.1L78.3,84l12.1-20.9H66.3z"/>
	</g>
	<rect x="75.7" y="63.9" class="st3" width="5" height="20.8"/>
	<path class="st0" d="M78.3,88.5c-0.5,0-1-0.3-1.3-0.8L62.4,62.3c-0.3-0.5-0.3-1,0-1.5c0.3-0.5,0.8-0.8,1.3-0.8H93
		c0.5,0,1,0.3,1.3,0.8c0.3,0.5,0.3,1,0,1.5L79.6,87.7C79.4,88.2,78.9,88.5,78.3,88.5z M66.3,63.1L78.3,84l12.1-20.9H66.3z"/>
	<g>
		<path class="st2" d="M78.2,64.5L78.2,64.5c-4.8,0-8.8-3.9-8.8-8.8v0c0-4.8,3.9-8.8,8.8-8.8h0c4.8,0,8.8,3.9,8.8,8.8v0
			C87,60.6,83.1,64.5,78.2,64.5z"/>
		<path class="st0" d="M78.2,67C72,67,67,61.9,67,55.7S72,44.5,78.2,44.5c6.2,0,11.3,5.1,11.3,11.3S84.4,67,78.2,67z M78.2,49.5
			c-3.5,0-6.3,2.8-6.3,6.3c0,3.5,2.8,6.3,6.3,6.3c3.5,0,6.3-2.8,6.3-6.3C84.5,52.3,81.7,49.5,78.2,49.5z"/>
	</g>
	<g>
		<circle class="st2" cx="78.3" cy="42.4" r="12.2"/>
		<path class="st0" d="M78.3,31.1c6.2,0,11.3,5.1,11.3,11.3s-5.1,11.3-11.3,11.3c-6.2,0-11.3-5.1-11.3-11.3S72.1,31.1,78.3,31.1
			 M78.3,26.1c-9,0-16.3,7.3-16.3,16.3s7.3,16.3,16.3,16.3c9,0,16.3-7.3,16.3-16.3S87.4,26.1,78.3,26.1L78.3,26.1z"/>
	</g>
	<g>
		<circle class="st2" cx="50.3" cy="63.7" r="12.2"/>
		<path class="st0" d="M50.3,52.4c6.2,0,11.3,5.1,11.3,11.3s-5.1,11.3-11.3,11.3S39,70,39,63.7S44.1,52.4,50.3,52.4 M50.3,47.4
			c-9,0-16.3,7.3-16.3,16.3s7.3,16.3,16.3,16.3c9,0,16.3-7.3,16.3-16.3S59.3,47.4,50.3,47.4L50.3,47.4z"/>
	</g>
	<g>
		<circle class="st2" cx="106.4" cy="63.7" r="12.2"/>
		<path class="st0" d="M106.4,52.4c6.2,0,11.3,5.1,11.3,11.3s-5.1,11.3-11.3,11.3c-6.2,0-11.3-5.1-11.3-11.3S100.1,52.4,106.4,52.4
			 M106.4,47.4c-9,0-16.3,7.3-16.3,16.3s7.3,16.3,16.3,16.3c9,0,16.3-7.3,16.3-16.3S115.4,47.4,106.4,47.4L106.4,47.4z"/>
	</g>
	<path class="st0" d="M77.6,25.2c28.8,0,52.2,23.4,52.2,52.2s-23.4,52.2-52.2,52.2s-52.2-23.4-52.2-52.2S48.8,25.2,77.6,25.2
		 M77.6,0.2C35,0.2,0.4,34.8,0.4,77.4c0,42.6,34.6,77.2,77.2,77.2c42.6,0,77.2-34.6,77.2-77.2C154.8,34.8,120.2,0.2,77.6,0.2
		L77.6,0.2z"/>
	<g>
		<path class="st2" d="M122.8,77.1c-3.1,3.1-3.1,8,0,11.1c3.1,3.1,8,3.1,11.1,0C136.9,85.1,125.9,74,122.8,77.1z"/>
		<path class="st0" d="M128.3,92.9c-2.6,0-5.3-1-7.3-3c-4-4-4-10.6,0-14.6c2.5-2.5,6.9-1.3,11.3,3.2c4.5,4.5,5.7,8.8,3.2,11.3
			C133.6,91.9,131,92.9,128.3,92.9z M124.4,79.1c-1.9,2.1-1.8,5.3,0.2,7.3s5.2,2.1,7.3,0.2c-0.1-0.7-1-2.5-3-4.5
			C126.8,80.1,125.1,79.2,124.4,79.1z"/>
	</g>
	<g>
		<path class="st2" d="M32.4,76.6c3.1,3.1,3.1,8,0,11.1c-3.1,3.1-8,3.1-11.1,0C18.3,84.6,29.3,73.6,32.4,76.6z"/>
		<path class="st0" d="M26.8,92.4c-2.6,0-5.3-1-7.3-3c-0.9-0.9-2.1-2.8-0.5-6.3c0.8-1.6,2.1-3.4,3.7-5.1c4.5-4.5,8.8-5.7,11.3-3.2
			c4,4,4,10.6,0,14.6C32.1,91.4,29.5,92.4,26.8,92.4z M23.3,86.1c2.1,1.9,5.3,1.8,7.3-0.2c2-2,2.1-5.2,0.2-7.3c-0.7,0.1-2.5,1-4.5,3
			C24.3,83.6,23.4,85.4,23.3,86.1z"/>
	</g>
</g>
</svg>
