<?xml version="1.0" standalone="no"?>
<!DOCTYPE svg PUBLIC "-//W3C//DTD SVG 20010904//EN"
 "http://www.w3.org/TR/2001/REC-SVG-20010904/DTD/svg10.dtd">
<svg version="1.0" xmlns="http://www.w3.org/2000/svg"
 width="418.000000pt" height="418.000000pt" viewBox="0 0 418.000000 418.000000"
 preserveAspectRatio="xMidYMid meet">
<metadata>
Created by potrace 1.11, written by Peter Selinger 2001-2013
</metadata>
<g transform="translate(0.000000,418.000000) scale(0.100000,-0.100000)"
fill="#000000" stroke="none">
<path d="M1214 3780 c-6 -6 -31 -11 -56 -13 -26 -1 -44 -6 -41 -11 4 -5 -3 -7
-16 -3 -12 3 -27 -1 -35 -8 -7 -8 -16 -12 -19 -8 -3 3 -20 -2 -36 -10 -22 -11
-31 -12 -31 -4 0 7 -5 4 -11 -5 -6 -11 -16 -15 -26 -11 -11 4 -14 3 -9 -5 4
-7 1 -13 -8 -13 -35 -3 -41 -5 -39 -16 2 -7 -6 -10 -17 -8 -11 2 -20 -1 -20
-6 0 -6 -4 -7 -10 -4 -5 3 -10 1 -10 -5 0 -6 -4 -8 -10 -5 -5 3 -10 2 -10 -4
0 -5 -9 -13 -20 -16 -11 -4 -18 -10 -16 -14 3 -4 -4 -7 -14 -8 -10 -1 -28 -11
-40 -23 -13 -13 -28 -19 -37 -16 -13 5 -14 4 -3 -9 10 -12 9 -15 -6 -15 -11 0
-28 -7 -38 -15 -11 -8 -17 -15 -13 -15 4 0 -1 -9 -10 -19 -9 -11 -20 -18 -25
-15 -4 3 -8 -2 -8 -11 0 -9 -4 -13 -10 -10 -5 3 -10 1 -10 -5 0 -15 -26 -41
-34 -33 -3 4 -6 -1 -6 -10 0 -9 -4 -17 -10 -17 -5 0 -10 -5 -10 -11 0 -7 -11
-22 -26 -35 -14 -13 -22 -24 -19 -24 5 0 -4 -13 -33 -45 -7 -8 -10 -15 -5 -15
4 0 1 -5 -7 -10 -8 -5 -15 -15 -15 -22 -1 -7 -6 -12 -12 -11 -7 2 -10 -6 -8
-16 2 -11 -3 -22 -12 -25 -9 -4 -13 -9 -10 -13 4 -3 -1 -12 -11 -20 -11 -9
-11 -12 -2 -7 12 5 12 4 3 -6 -6 -7 -9 -19 -6 -26 3 -9 0 -12 -9 -9 -9 4 -14
-3 -16 -22 -1 -16 -7 -29 -12 -31 -6 -2 -10 -17 -10 -33 0 -16 -4 -38 -10 -49
-5 -11 -14 -28 -19 -39 -6 -12 -6 -23 2 -31 9 -10 9 -11 0 -6 -13 7 -18 -15
-14 -56 1 -10 -3 -18 -8 -18 -6 0 -11 -5 -11 -11 0 -5 4 -8 8 -5 5 3 9 -1 9
-9 0 -8 -4 -12 -9 -9 -14 9 -10 -270 5 -285 10 -11 10 -13 0 -7 -8 4 -13 1
-13 -8 0 -9 6 -16 13 -16 9 0 8 -3 -2 -9 -8 -5 -9 -10 -3 -12 6 -2 12 -22 13
-44 2 -22 7 -42 11 -45 4 -3 8 -22 10 -42 1 -20 6 -34 10 -32 4 3 8 -6 8 -20
0 -14 5 -26 10 -26 6 0 9 -3 9 -7 -4 -26 2 -63 10 -58 5 3 12 1 15 -4 4 -5 2
-12 -4 -16 -6 -4 -1 -18 12 -35 12 -16 24 -27 28 -25 3 2 5 -9 4 -25 -1 -20 2
-27 12 -23 9 3 12 -2 9 -16 -2 -12 -1 -20 3 -17 4 2 13 -2 20 -10 7 -8 10 -14
6 -14 -4 0 2 -10 14 -23 12 -13 19 -27 15 -30 -3 -4 1 -7 11 -7 9 0 14 -4 11
-10 -3 -5 -1 -10 5 -10 6 0 15 -11 20 -25 5 -14 19 -29 29 -33 11 -4 20 -11
20 -15 0 -13 28 -36 35 -29 4 3 4 -1 0 -11 -4 -12 -1 -17 10 -17 9 0 16 -4 16
-10 0 -5 7 -10 17 -10 9 0 14 -3 10 -6 -8 -8 16 -33 26 -27 4 2 7 -3 7 -11 0
-10 9 -16 23 -17 12 0 17 -3 10 -6 -14 -5 21 -45 50 -56 9 -3 17 -13 17 -22 0
-8 8 -15 17 -15 9 0 14 -3 10 -6 -8 -8 16 -33 26 -27 6 4 11 -12 8 -30 0 -4 5
-6 11 -5 7 2 12 -3 10 -10 -1 -8 2 -11 7 -8 5 4 17 -4 25 -16 9 -12 16 -18 17
-13 0 6 4 2 8 -8 4 -10 11 -19 16 -20 12 -3 65 -57 65 -67 0 -5 9 -12 20 -15
11 -3 20 -13 20 -21 0 -8 10 -19 23 -24 12 -5 19 -9 15 -9 -8 -1 48 -61 56
-61 3 0 16 -11 30 -25 14 -14 23 -25 20 -25 -3 0 1 -6 8 -14 7 -8 16 -12 21
-9 4 2 7 -3 7 -12 0 -9 5 -13 10 -10 5 3 10 1 10 -5 0 -15 26 -41 34 -33 3 4
6 -1 6 -10 0 -8 9 -19 20 -22 11 -3 20 -13 20 -21 0 -8 7 -14 16 -14 11 0 14
-5 10 -17 -4 -10 -4 -14 0 -11 3 4 24 -10 45 -31 21 -22 40 -36 43 -33 3 3 6
-3 6 -12 0 -13 5 -16 17 -12 10 4 15 4 12 1 -3 -3 30 -42 75 -87 45 -45 80
-85 78 -90 -1 -4 4 -8 11 -8 7 0 18 -9 25 -20 7 -11 20 -20 30 -20 14 0 15 -2
2 -10 -13 -8 -12 -10 3 -10 10 0 15 -5 12 -10 -3 -6 3 -10 15 -10 12 0 18 -4
15 -10 -3 -5 1 -10 9 -10 9 0 15 -6 14 -12 -2 -7 3 -12 10 -10 6 1 11 -4 10
-10 -2 -7 3 -12 10 -10 8 1 11 -2 8 -7 -3 -5 1 -11 9 -15 8 -3 15 -12 15 -21
0 -8 3 -14 8 -14 22 4 32 -3 32 -23 0 -12 3 -19 6 -16 7 8 54 -36 54 -51 0 -7
5 -9 10 -6 5 3 10 -1 10 -10 0 -9 4 -14 9 -11 9 6 34 -18 26 -25 -2 -3 5 -6
17 -6 12 -1 24 -7 28 -14 6 -8 9 -8 15 0 4 7 11 8 18 3 19 -13 59 -13 51 1 -5
8 -3 8 7 0 7 -7 19 -13 27 -13 8 0 10 5 6 13 -5 7 0 6 11 -3 11 -9 16 -10 11
-2 -6 11 11 17 36 13 5 0 7 4 5 11 -1 7 3 12 9 13 16 0 94 82 86 90 -4 4 -2 5
4 3 6 -2 45 32 87 75 41 42 81 77 88 77 7 0 10 3 6 6 -8 8 18 34 33 34 6 0 9
4 6 9 -3 4 12 23 34 41 22 18 37 37 34 42 -3 5 0 7 8 6 7 -2 12 2 11 9 -2 7 4
10 12 7 11 -5 13 -2 8 12 -4 12 -3 15 5 10 7 -4 12 -2 12 4 0 6 5 8 10 5 6 -3
10 0 10 8 0 7 16 27 35 44 19 17 31 34 27 38 -4 3 0 5 8 3 8 -2 14 3 12 10 -1
6 2 11 7 10 4 -2 26 16 49 39 22 23 43 39 46 35 3 -3 6 1 6 9 0 8 9 21 19 29
11 7 18 17 15 22 -3 4 2 8 10 8 9 0 21 9 28 20 7 11 19 20 26 20 7 0 11 4 8 8
-3 5 6 16 20 26 13 11 24 25 24 33 0 8 4 12 8 9 9 -5 35 20 64 64 12 16 18 20
18 10 0 -8 6 -4 13 10 8 14 19 24 25 22 7 -1 12 5 12 13 0 8 9 20 20 27 11 7
20 20 21 28 0 11 2 12 6 2 4 -10 9 -7 17 10 7 12 18 22 26 20 8 -2 10 3 7 13
-4 8 -1 15 6 15 7 0 24 13 37 30 14 16 31 29 39 30 8 0 12 3 8 6 -3 3 11 21
31 40 20 19 33 34 27 34 -5 0 1 6 15 13 14 8 24 19 22 25 -1 7 5 12 14 12 8 0
12 4 9 10 -3 5 -1 10 5 10 14 0 120 105 120 119 0 6 3 10 8 9 7 -3 96 83 97
93 1 4 11 16 57 71 10 11 15 26 11 32 -4 7 -1 7 8 -1 13 -10 15 -8 13 17 -1
17 2 27 8 24 5 -3 12 3 15 15 3 12 10 21 15 21 5 0 8 8 6 18 -2 9 2 16 7 15 6
-1 12 8 12 19 1 12 6 24 11 27 5 3 8 16 7 28 -1 12 3 21 9 20 6 -1 12 13 14
31 2 18 8 30 13 27 5 -4 9 8 9 24 0 17 4 31 8 31 4 0 8 15 8 33 0 22 4 31 14
29 11 -3 11 -1 0 13 -8 10 -10 19 -4 23 12 9 15 24 15 90 1 36 4 50 10 41 7
-11 8 -9 6 6 -1 11 -6 25 -10 32 -4 6 -1 14 5 17 10 5 10 7 0 12 -10 5 -10 9
-1 20 9 11 9 17 0 28 -9 11 -9 15 1 19 10 4 10 8 -1 15 -12 9 -12 13 -2 26 9
11 10 16 2 16 -6 0 -10 3 -10 8 1 4 1 22 0 40 -1 25 -5 32 -22 32 -11 0 -17
-4 -14 -10 3 -5 -1 -10 -9 -10 -9 0 -16 -6 -16 -14 0 -8 -5 -18 -12 -22 -7 -5
-8 -2 -3 7 4 8 -6 1 -23 -16 -16 -16 -27 -34 -24 -39 3 -5 -2 -6 -12 -3 -10 4
-15 3 -11 -3 3 -6 1 -10 -5 -10 -6 0 -8 -4 -5 -10 3 -5 1 -10 -5 -10 -6 0 -23
-11 -38 -25 -15 -14 -23 -25 -19 -25 4 0 2 -6 -5 -14 -9 -10 -15 -11 -20 -2
-5 7 -8 5 -8 -6 0 -10 -5 -18 -10 -18 -6 0 -9 -6 -8 -12 2 -7 -2 -12 -9 -11
-6 1 -17 -5 -25 -14 -11 -14 -11 -16 1 -8 10 6 12 4 7 -4 -5 -7 -14 -10 -22
-7 -8 3 -13 2 -13 -2 3 -20 -2 -33 -11 -27 -5 3 -10 1 -10 -4 0 -6 -8 -11 -17
-11 -15 0 -16 -2 -3 -10 13 -8 12 -10 -2 -10 -16 0 -23 -11 -19 -33 1 -5 -2
-6 -7 -3 -5 3 -18 -3 -29 -14 -12 -10 -24 -16 -29 -12 -4 4 -4 2 -1 -4 4 -6
-9 -24 -28 -40 -19 -16 -35 -35 -35 -42 0 -7 -4 -10 -10 -7 -5 3 -10 -2 -10
-11 0 -10 -3 -15 -6 -11 -8 8 -33 -16 -27 -25 2 -5 -3 -8 -11 -8 -8 0 -17 -9
-21 -20 -3 -11 -9 -19 -13 -17 -10 3 -61 -51 -54 -57 3 -3 -2 -6 -10 -6 -9 0
-19 -7 -22 -16 -3 -8 -11 -12 -17 -8 -7 4 -9 3 -6 -3 4 -6 -9 -23 -28 -38 -18
-16 -32 -33 -29 -37 3 -4 -2 -8 -11 -8 -9 0 -13 -4 -10 -10 3 -5 -1 -10 -9
-10 -9 0 -16 -6 -16 -14 0 -8 -5 -18 -12 -22 -7 -5 -8 -2 -3 7 7 12 6 12 -6 1
-8 -7 -14 -18 -14 -25 0 -7 -9 -11 -19 -9 -10 2 -15 -1 -12 -7 4 -5 -3 -16
-14 -24 -11 -7 -17 -17 -13 -20 6 -7 -12 -11 -31 -8 -5 1 -6 -5 -3 -13 4 -9
-2 -16 -15 -19 -11 -3 -17 -10 -14 -16 4 -5 -3 -12 -14 -16 -11 -4 -18 -11
-15 -16 4 -5 1 -9 -5 -9 -15 0 -41 -26 -33 -34 4 -3 1 -6 -5 -6 -14 0 -62 -47
-54 -54 3 -3 0 -6 -7 -6 -16 0 -42 -26 -34 -34 4 -3 1 -6 -6 -6 -7 0 -22 -11
-33 -25 -11 -14 -25 -22 -31 -18 -7 3 -9 3 -5 -1 4 -5 -7 -21 -23 -37 -16 -16
-27 -29 -24 -29 3 0 0 -6 -7 -14 -7 -8 -16 -12 -21 -9 -4 2 -7 1 -6 -4 3 -17
-1 -33 -8 -31 -10 4 -59 -45 -55 -54 1 -5 -5 -8 -14 -8 -20 0 -56 -39 -48 -51
3 -5 -4 -9 -15 -9 -12 0 -21 -7 -21 -15 0 -8 -8 -15 -17 -15 -9 0 -14 -3 -11
-6 7 -6 -28 -44 -39 -43 -4 0 -11 -9 -15 -21 -4 -12 -12 -18 -18 -15 -6 4 -9
1 -8 -7 2 -7 -3 -12 -9 -10 -7 1 -13 -5 -13 -13 0 -8 -4 -15 -10 -15 -5 0 -10
-7 -10 -16 0 -10 -6 -14 -15 -10 -8 3 -15 1 -15 -5 0 -5 -13 -23 -29 -38 -16
-16 -27 -32 -23 -36 3 -3 -1 -3 -10 0 -9 4 -19 1 -24 -6 -5 -8 -3 -10 7 -5 8
4 5 0 -6 -9 -11 -9 -18 -22 -17 -28 2 -7 0 -9 -4 -5 -4 4 -17 -3 -29 -17 -13
-13 -26 -21 -29 -18 -3 4 -6 1 -6 -6 0 -7 -7 -11 -15 -8 -8 4 -17 2 -21 -4 -4
-6 -14 -3 -27 8 -14 12 -18 13 -12 3 4 -8 -3 -4 -17 10 -13 14 -22 29 -20 34
3 5 -2 7 -11 3 -9 -3 -16 -3 -14 1 3 12 -50 62 -59 54 -4 -4 -4 1 -1 10 4 11
2 18 -6 18 -7 0 -19 9 -27 20 -8 11 -21 20 -29 20 -8 0 -12 3 -8 6 7 8 -38 54
-53 54 -6 0 -8 5 -5 10 3 5 1 10 -4 10 -6 0 -11 7 -11 17 0 9 -3 14 -6 10 -8
-8 -34 18 -34 35 0 10 -3 9 -10 -2 -8 -13 -10 -13 -10 2 0 10 -11 25 -25 34
-14 9 -22 20 -19 25 3 5 -5 9 -18 9 -18 0 -20 2 -8 10 13 8 13 10 -2 10 -10 0
-22 9 -28 20 -6 11 -15 18 -21 15 -5 -4 -9 1 -9 9 0 9 -7 16 -15 16 -9 0 -12
6 -8 17 4 11 3 14 -5 9 -7 -4 -12 -2 -12 3 0 6 -7 11 -16 11 -8 0 -13 4 -10 9
7 11 -29 43 -38 34 -4 -5 -6 -3 -5 2 5 14 -63 85 -81 85 -13 0 -13 1 0 10 12
8 10 10 -9 10 -13 0 -22 3 -18 6 7 8 -38 54 -53 54 -6 0 -8 5 -5 10 3 6 1 10
-4 10 -6 0 -11 8 -11 17 0 9 -3 14 -6 10 -7 -7 -94 79 -94 93 0 6 -4 8 -10 5
-9 -5 -15 15 -11 38 0 4 -3 7 -9 7 -5 0 -10 7 -10 16 0 8 -5 12 -11 8 -7 -4
-7 1 1 16 10 18 8 25 -7 43 -10 11 -12 17 -5 13 16 -9 16 6 0 23 -11 11 -10
13 3 8 13 -4 15 -1 12 14 -3 10 0 25 6 33 8 10 9 16 2 21 -12 7 -8 13 45 70
17 19 29 37 26 40 -3 3 2 5 12 5 9 0 19 7 22 15 4 8 11 12 16 9 6 -4 13 -1 17
5 4 6 20 13 37 15 16 2 38 7 48 12 12 4 17 4 13 -2 -3 -5 3 -10 13 -10 10 0
17 3 14 7 -5 9 17 6 33 -4 6 -4 23 -8 36 -9 14 -1 23 -6 21 -10 -3 -4 4 -8 16
-8 12 0 18 -4 15 -10 -3 -6 4 -10 16 -10 12 0 20 -3 17 -6 -7 -6 121 -134 134
-134 4 0 7 -6 6 -12 -2 -7 3 -12 10 -10 6 1 12 -4 12 -11 0 -7 9 -18 20 -25
11 -7 20 -18 20 -26 0 -9 8 -13 23 -10 12 2 16 2 10 -2 -7 -3 -13 -11 -13 -17
0 -5 3 -7 7 -4 8 9 53 -32 53 -49 0 -7 9 -10 23 -8 12 2 16 2 10 -2 -14 -6
-18 -25 -4 -22 4 2 45 -34 91 -79 45 -46 86 -83 92 -83 5 0 6 -4 3 -10 -3 -5
-2 -10 3 -10 4 0 28 22 52 49 25 27 48 47 52 45 4 -3 8 0 8 6 0 15 156 171
164 163 3 -4 6 -1 6 6 0 16 25 41 41 41 7 0 9 3 6 6 -8 8 63 80 75 76 4 -1 8
5 8 13 0 8 5 15 11 15 5 0 7 5 4 10 -3 6 4 10 16 10 12 0 20 3 17 6 -7 6 94
110 105 106 4 -1 7 2 7 8 0 14 66 80 80 80 6 0 9 3 7 8 -6 10 90 102 99 94 4
-4 4 1 1 11 -4 9 -2 17 4 17 5 0 27 18 49 40 22 22 44 40 50 40 5 0 9 3 8 8
-1 4 14 25 35 46 20 21 37 35 37 30 1 -5 8 3 16 19 8 15 22 27 30 27 8 0 13 4
10 8 -2 4 9 18 25 31 16 13 29 31 29 40 0 14 2 14 10 1 8 -13 10 -12 10 3 0
10 5 15 10 12 6 -3 10 0 10 7 0 7 11 22 25 32 13 10 22 22 19 27 -3 5 3 6 12
2 13 -5 16 -3 11 10 -3 9 -2 17 3 17 6 0 33 23 60 50 27 28 55 50 60 50 6 0 8
5 5 10 -3 6 -1 10 5 10 6 0 8 5 4 12 -5 8 -2 9 9 5 9 -3 19 -2 22 3 3 4 -1 11
-7 13 -8 3 -6 6 5 6 9 1 17 6 17 11 0 6 7 10 16 10 8 0 12 5 9 11 -4 6 2 13
14 16 11 3 18 9 15 14 -3 5 2 12 10 15 9 3 16 13 16 21 0 8 4 12 9 9 5 -3 12
1 15 10 3 8 10 12 16 9 5 -3 10 1 10 9 0 9 4 16 9 16 5 0 13 9 16 20 3 11 11
20 16 20 6 0 7 -5 3 -12 -4 -7 -3 -8 4 -4 7 4 12 14 12 22 0 8 7 14 17 14 9 0
14 3 10 6 -3 3 12 24 33 45 l39 40 -22 25 c-12 14 -21 29 -20 32 1 4 -7 10
-18 14 -11 4 -17 12 -14 18 3 5 -1 10 -10 10 -9 0 -13 5 -10 10 3 6 -1 10 -10
10 -9 0 -13 5 -10 10 3 6 0 10 -8 10 -8 0 -21 8 -28 17 -12 14 -12 16 0 8 10
-5 12 -4 7 3 -4 7 -16 12 -27 12 -11 0 -17 5 -14 10 3 6 -1 10 -9 10 -9 0 -16
5 -16 11 0 5 -4 8 -9 5 -5 -3 -11 4 -14 15 -3 12 -12 19 -19 17 -7 -3 -17 -1
-23 4 -5 5 -21 17 -34 28 -13 11 -32 22 -42 25 -11 4 -19 10 -19 15 0 4 -11 7
-25 6 -13 -2 -23 2 -22 8 1 6 -7 11 -17 11 -11 0 -21 6 -24 13 -2 6 -15 12
-28 12 -13 0 -24 5 -24 10 0 6 -16 10 -35 10 -19 0 -35 5 -35 10 0 6 -14 10
-31 10 -16 0 -28 4 -25 8 2 4 -14 9 -36 9 -23 1 -44 7 -48 14 -6 8 -9 8 -13
-2 -4 -10 -6 -10 -6 -1 -1 6 -6 12 -12 12 -5 0 -7 -6 -3 -12 6 -10 4 -10 -7 0
-17 16 -325 17 -335 1 -4 -8 -9 -7 -15 2 -6 10 -9 11 -9 2 0 -8 -14 -13 -35
-13 -19 0 -35 -5 -35 -11 0 -8 -6 -7 -17 2 -11 10 -14 10 -9 2 7 -12 -15 -17
-61 -16 -7 1 -10 -3 -7 -8 5 -9 -9 -13 -33 -10 -6 1 -14 -3 -18 -9 -3 -5 -17
-10 -31 -10 -14 0 -23 -4 -20 -9 5 -8 -41 -26 -53 -21 -2 1 -7 -2 -10 -7 -3
-5 -18 -16 -33 -25 -20 -13 -28 -14 -31 -5 -3 7 -6 5 -6 -5 -1 -10 -8 -18 -17
-18 -8 0 -12 -4 -9 -10 3 -5 -3 -10 -14 -10 -12 0 -21 -5 -21 -11 0 -5 -4 -7
-10 -4 -5 3 -10 0 -10 -8 0 -10 -7 -13 -20 -10 -11 3 -20 9 -20 13 0 8 -38 23
-53 21 -4 -1 -6 4 -5 11 2 7 -1 13 -7 13 -19 2 -65 28 -65 37 0 4 -3 7 -7 7
-19 -3 -34 2 -29 9 3 5 -8 8 -23 7 -18 -1 -27 3 -25 9 3 7 -8 13 -23 14 -15 1
-30 7 -34 13 -4 7 -11 9 -17 5 -5 -3 -15 1 -22 9 -7 9 -29 15 -52 15 -25 0
-37 4 -33 11 4 6 1 10 -6 8 -8 -1 -31 -1 -52 0 -28 1 -36 4 -31 14 5 8 2 8 -9
-2 -13 -10 -17 -10 -17 -1 0 9 -4 9 -17 -1 -12 -10 -15 -11 -9 -1 6 10 -21 12
-133 11 -89 0 -141 -5 -141 -11 0 -7 -5 -7 -13 1 -9 7 -17 7 -23 1z"/>
<path d="M1530 836 c0 -2 8 -10 18 -17 15 -13 16 -12 3 4 -13 16 -21 21 -21
13z"/>
</g>
</svg>
